<svg width="76" height="106" fill="none" xmlns="http://www.w3.org/2000/svg"><path d="M17.54 94.736h41.363s-14.184 10.26-20.682 10.26c-6.498 0-20.682-10.26-20.682-10.26zM32.331 4.265h6.6c.801 0 5.004 8.197 5.004 8.197l3.005 1.603s.202 1.473-.728 1.473c-.931 0-1.871.608-1.871.608l-.6 7.11 10.397 1.999 13.797 5.195.101 45.95H7.935l-.01-46.144 11.614-4.2 9.603-1.602 2.6-.599.599-7.396s-7.199-3.196-.802-3.997l.792-8.197z" fill="#fff"/><path d="M76 77.633H0V93.51h76V77.633z" fill="url(#paint0_linear)"/><path d="M20.498 89.08h.636c.332 0 .488-.183.488-.543v-5.95c0-.359-.184-.543-.553-.543h-.58c-.36 0-.544.184-.544.544v5.95c-.01.359.175.543.553.543zm-.304 1.124c-1.005 0-1.503-.525-1.503-1.575v-6.115c0-1.06.498-1.594 1.484-1.594h1.19c.995 0 1.483.535 1.483 1.594v6.115c0 1.05-.498 1.575-1.502 1.575h-1.152zm9.189-4.798V80.92h1.244v9.284h-1.244v-1.85l-1.337-4.228v6.078h-1.235V80.92h1.235l1.337 4.486zm8.203 4.798h-2.95V80.92h1.244v8.16h1.706v1.124zm4.801-9.284h-1.244v9.284h1.244V80.92zm6.581 4.486V80.92h1.244v9.284h-1.244v-1.85l-1.337-4.228v6.078h-1.234V80.92h1.235l1.336 4.486zm5.253 4.798V80.92H57.3v1.124h-1.835v2.818h1.632v1.133h-1.632v3.086H57.3v1.123h-3.078zM43.982 48.316c0-1.17.009-2.339.009-3.509-.23-.258-.461-.516-.7-.764l-1.715-.056c0 3.804-.01 7.599-.018 11.403.562 0 1.115.009 1.677.009.24-.304.489-.599.728-.903 0-2.063.01-4.126.019-6.18zM18.7 42.191c-.009-2.22-.018-4.44-.018-6.668-.258-.166-.507-.332-.765-.488-.534.129-1.069.258-1.594.396 0 2.726.009 5.443.018 8.17.443-.074.894-.139 1.337-.212.331-.396.682-.793 1.023-1.198zm15.927-9.09c-.562.019-1.124.046-1.696.074.01 3.03.01 5.618.019 8.648.414-.018.838-.027 1.253-.037.341-.368.682-.727 1.014-1.096 0-2.45-.01-4.467-.01-6.917a18.893 18.893 0 00-.58-.672zM18.71 46.208l-1.051-.912c-.443.055-.885.12-1.328.175.01 3.389.01 6.778.019 10.177.599-.018 1.198-.028 1.788-.046.203-.23.396-.47.6-.71-.01-1.943-.01-3.886-.02-5.83 0-.948 0-1.906-.009-2.854zM44 41.27c.01-2.542.01-5.075.019-7.617a73.405 73.405 0 00-.839-.829c-.525-.027-1.06-.064-1.585-.092-.01 3.049-.01 6.097-.018 9.146.58.018 1.17.037 1.75.064l.674-.672zm-19.014 7.379l1.355-.074-.682-10.002-.673 10.076zm34.683-5.361c0-2.275.009-4.56.009-6.834-.212-.276-.415-.562-.627-.847-.534-.13-1.06-.267-1.594-.387l-.028 8.335c.535.074 1.07.157 1.604.249.203-.175.424-.35.636-.516zM55.64 94.736H20.36c4.958 3.813 10.93 6.41 17.64 8.105 6.7-1.695 12.682-4.292 17.64-8.105z" fill="#383739"/><path d="M39.603 56.155v-5.692c0-2.174 0-4.338.01-6.512v-2.367c0-3.62.009-7.248.009-10.868.617.01 1.235.037 1.843.055.046 0 .092 0 .138.01.82.036 1.64.082 2.452.147a395.47 395.47 0 011.972 1.962c0 .911-.009 1.832-.009 2.744l.01.028-.01-.01c-.01 2.008-.01 4.016-.018 6.024l-1.364 1.39 1.354 1.493c-.009 1.271-.009 2.551-.009 3.822-.009 2.349-.018 4.688-.018 7.037-.664.82-1.337 1.648-2 2.477h-4.35c-.01-.589-.01-1.16-.01-1.74zm8.71-.535c.018-3.656.028-7.312.046-10.969 0-.737.01-1.464.01-2.201.018-3.694.027-7.387.045-11.07 1.715.22 3.429.506 5.134.837 0 .719-.01 1.446-.01 2.165-1.05-.194-2.11-.36-3.17-.516-.009 2.91-.027 5.83-.037 8.74 1.06.093 2.111.203 3.171.323 0 .709-.01 1.418-.01 2.127-1.06-.101-2.11-.193-3.17-.276-.018 3.62-.027 7.23-.046 10.85 1.06.009 2.11.027 3.17.046 0 .737-.008 1.464-.008 2.201h-5.125c-.01-.746 0-1.501 0-2.257zm7.207-22.95a76.87 76.87 0 014.295 1.086c.6.802 1.19 1.603 1.78 2.395v7.755c-.443.34-.886.69-1.337 1.04a64.9 64.9 0 001.336 1.465v11.421H59.64c.01-3.813.01-7.626.019-11.43-.212-.23-.424-.47-.636-.7a99.256 99.256 0 00-1.604-.212c-.01 4.117-.028 8.234-.037 12.342h-1.954c.028-8.39.065-16.781.092-25.162zM35.253 57.813c-.01-4.145-.01-8.713-.018-12.858l-1.014-1.068-1.254.027.028 13.898h-1.954c-.027-9.357-.055-18.282-.083-26.774a78.254 78.254 0 014.397-.267c.617.691 1.235 1.4 1.843 2.11v8.482c-.452.488-.903.967-1.355 1.455.452.48.903.949 1.355 1.428 0 4.375 0 9.192.009 13.566h-1.954zm-8.037 0c-.22-2.414-.442-4.817-.673-7.212-.571.018-1.142.046-1.723.074-.212 2.385-.433 4.77-.645 7.138h-1.927a8664.42 8664.42 0 002.35-26.075c.655-.11 1.31-.212 1.964-.304a7642.11 7642.11 0 012.571 26.37c-.636.008-1.272.008-1.917.008zm-6.479-2.266c-.664.792-1.318 1.575-1.982 2.34h-4.35V34.251c.59-.184 1.19-.358 1.779-.524.046-.01.092-.028.129-.037.793-.221 1.595-.433 2.387-.636.645.396 1.29.802 1.945 1.235.009 2.763.018 5.526.037 8.289-.452.516-.894 1.031-1.337 1.547.452.387.894.774 1.346 1.17.01 1.206.01 2.413.018 3.61 0 1.216.01 2.422.019 3.63 0 0 .009-.01.009-.02l-.01.038c0 1.003 0 1.998.01 2.993zM10.12 31.766s-.148 31.26.018 44.633h55.714c.166-13.383.019-44.633.019-44.633-7.19-3.795-17.023-6.125-27.871-6.125-10.848-.01-20.682 2.33-27.88 6.125z" fill="#383739"/><path d="M32.848 20.465l8.406-3.712h1.898v3.62l-4.967 2.201H38c-1.733 0-3.456.065-5.152.175v-2.284zM30.13 14.23c0-.562.461-1.023 1.023-1.023h13.696c.562 0 1.023.461 1.023 1.023 0 .562-.46 1.022-1.023 1.022H31.152a1.015 1.015 0 01-1.023-1.022zM8.913 76.399c-.166-13.272-.019-44.458-.019-44.651l.01-.737.654-.34c7.668-4.044 17.77-6.273 28.452-6.273 10.681 0 20.774 2.229 28.451 6.272l.654.34.01.738c0 .184.147 31.37-.019 44.651h1.844c.156-12.664.027-42.671.018-44.605l-.018-1.888-1.623-.857c-6.22-3.279-13.963-5.397-22.304-6.162v-6.134a2.519 2.519 0 002.489-2.514 2.519 2.519 0 00-2.489-2.514 7.885 7.885 0 00.959-3.767C45.982 3.564 42.415 0 38.019 0c-4.397 0-7.963 3.564-7.963 7.958 0 1.363.35 2.652.958 3.767a2.513 2.513 0 00-2.488 2.514 2.51 2.51 0 002.479 2.514v6.134c-8.341.765-16.083 2.883-22.304 6.162l-1.622.857-.019 1.888c-.018 1.934-.138 31.95.019 44.605h1.834zm29.382 27.63l-.304.074-.305-.074c-7.88-1.98-14.258-5.056-19.308-9.293h-2.784c5.493 5.167 12.627 8.814 21.64 11.08l.747.184.756-.184c9.014-2.266 16.138-5.922 21.64-11.08h-2.783c-5.041 4.236-11.41 7.304-19.3 9.293z" fill="#383739"/><path d="M65.936 99.728c3.317-1.179 6.377-2.864 9.188-4.992h-9.188v4.992z" fill="url(#paint1_linear)"/><path d="M10.056 99.728v-4.992H.866c2.812 2.128 5.872 3.813 9.19 4.992z" fill="url(#paint2_linear)"/><path d="M23.364 68.929c-.599 0-1.032-.24-1.032-.69 0-.406.34-.802.958-.802.489 0 .986.267 1.678.82-.461.414-.996.672-1.604.672zm7.253-11.955c-3.843 0-6.202 2.671-6.202 5.554 0 1.538.673 2.514.673 2.514l.534-.396a1.706 1.706 0 00.645-1.667 2.952 2.952 0 01-.046-.506c0-1.584 1.475-3.767 4.258-3.767 2.498 0 3.567 1.713 3.567 3.923 0 2.966-1.917 6.53-4.378 6.53-.802 0-1.447-.377-2.092-.847.442-.608.783-1.299 1.05-1.99 0-.018 1.07-2.781 1.503-3.794.664-1.566 1.05-2.201 1.05-2.201-.709-.332-1.695-.194-2.331.506-.323.35-.562.755-.728 1.16l-1.456 3.685c-.185.47-.424.958-.71 1.4-1.07-.774-1.834-1.087-2.719-1.087-1.825 0-2.571 1.335-2.571 2.367 0 1.04.737 2.321 2.792 2.321a4.545 4.545 0 003.032-1.133c1.051.866 1.853 1.428 3.263 1.428 4.166 0 6.452-4.725 6.452-8.345 0-3.38-2.01-5.655-5.586-5.655zm15.079 16.57c-.267 0-.442-.174-.442-.423 0-.313.304-.599.673-.83.442-.248.81-.395 1.29-.598-.544 1.428-1.134 1.842-1.52 1.852zm-5.115-6.253s-.783 1.225-1.687 1.225c-.322 0-.506-.175-.506-.599 0-1.087 1.244-4.329 2.59-4.329.727 0 .727.958.727.958l-1.124 2.745zm13.52-1.51c-1.133 1.943-2.294 3.011-3.787 3.766l3.133-7.598h-1.096c-.692 0-1.318.414-1.576 1.05l-1.272 3.085c-.848 1.474-1.64 2.653-2.36 2.653-.332 0-.544-.249.092-1.805l2.037-4.974h-1.096a1.7 1.7 0 00-1.577 1.05l-1.225 2.966c-.01.018-.028.036-.037.055a9.512 9.512 0 00-.378 1.068c-.82 1.133-1.585 1.824-2.11 1.824-.323 0-.572-.286.128-1.99l2.019-4.973-1.088-.01c-.71 0-1.345.425-1.594 1.078 0 0-.304-1.27-1.78-1.27-2.93 0-4.33 4.908-4.33 6.594 0 1.087.589 1.962 1.713 1.962 1.374 0 2.415-1.29 2.415-1.29s.13 1.29 1.724 1.29c1.004 0 1.898-.544 2.71-1.382.138.912.709 1.216.949 1.299.175.055.368.083.562.083 1.133 0 1.898-.977 1.898-.977l-.414.986c-.35.203-1.245.562-1.834.847-.83.378-1.77 1.069-1.798 2.119-.018.893.59 1.667 1.862 1.667 1.797 0 2.691-1.51 3.346-3.012l.378-.976c1.64-.765 3.318-1.649 4.875-4.08.286-.443.055-1.06-.488-1.106z" fill="#00ACA4"/><defs><linearGradient id="paint0_linear" x1="19.337" y1="85.565" x2="-273.219" y2="85.565" gradientUnits="userSpaceOnUse"><stop stop-color="#fff"/><stop offset="1" stop-color="#333"/></linearGradient><linearGradient id="paint1_linear" x1="19.337" y1="97.229" x2="-273.218" y2="97.229" gradientUnits="userSpaceOnUse"><stop stop-color="#fff"/><stop offset="1" stop-color="#333"/></linearGradient><linearGradient id="paint2_linear" x1="19.337" y1="97.229" x2="-273.22" y2="97.229" gradientUnits="userSpaceOnUse"><stop stop-color="#fff"/><stop offset="1" stop-color="#333"/></linearGradient></defs></svg>